<svg xmlns="http://www.w3.org/2000/svg" xmlns:xlink="http://www.w3.org/1999/xlink" version="1.1" preserveAspectRatio="none" x="0px" y="0px" viewBox="0 0 100 100"><defs><g id="a"><path fill="#fff" stroke="none" d=" M 92.75 89.5 Q 92.7482421875 88.055859375 91.7 87 L 66 61.1 Q 73.5015625 52.1220703125 73.5 40 73.4998046875 26.1 63.65 16.25 53.9029296875 6.503125 40 6.5 26.10078125 6.505078125 16.25 16.25 6.505078125 26.10078125 6.5 40 6.503125 53.9029296875 16.25 63.65 26.1 73.4998046875 40 73.5 52.106640625 73.5015625 61.05 66.05 L 86.75 91.95 Q 87.805859375 92.999609375 89.25 93 90.694921875 93.0013671875 91.7 91.95 92.750390625 90.9474609375 92.75 89.5 M 58.7 21.2 Q 66.5 28.9998046875 66.5 40 66.4978515625 50.95078125 58.8 58.65 L 58.65 58.8 Q 50.9509765625 66.4978515625 40 66.5 28.9998046875 66.5 21.2 58.7 13.4966796875 50.996875 13.5 40 13.4947265625 28.9990234375 21.2 21.2 28.9990234375 13.4947265625 40 13.5 50.996875 13.4966796875 58.7 21.2 Z"/></g></defs><g transform="matrix( 1, 0, 0, 1, 0,0) "><use xlink:href="#a"/></g></svg>